<svg height='300px' width='300px'  fill="#CC0096" xmlns="http://www.w3.org/2000/svg" xmlns:xlink="http://www.w3.org/1999/xlink" version="1.1" x="0px" y="0px" viewBox="0 0 66 66" enable-background="new 0 0 66 66" xml:space="preserve"><g><path d="M4.3,12.7C7,8.4,10.5,5.1,15.4,5.1c0.9,0,1.9,0.1,2.8,0.4c5.6,1.4,8.3,6.2,10.1,12c1.2-4.2,0.3-7.2-1-9.2   c-3-5-9.5-7.2-14.7-7.2C6.7,1,2.3,3.6,1.1,7.8C0.7,9.2,1.1,11,4.3,12.7z"></path><path d="M37.6,32.8c3,0,5.5-3.1,5.9-7c-3.6,0.3-8.3,0.8-11.7,0.3c0.2,1.7,0.8,3.2,1.7,4.5C34.6,32,36.1,32.8,37.6,32.8z"></path><ellipse cx="13" cy="17.5" rx="1.2" ry="1.2"></ellipse><path d="M64.9,22.4c-1.7-2.6-4.5-3.8-7.5-3.3c-3.4,0.6-6.3,3.2-7.7,6.8c-0.6-0.4-1.3-0.6-2-0.5c-0.5,0.1-1.7,0.2-2.1,0.2   c-0.3,5.2-3.7,9.3-7.9,9.3c-2.1,0-4.2-1.1-5.7-3c-1.3-1.7-2-3.8-2.2-6.1c-0.8-0.3-1.4-0.6-1.8-1.1C26.3,16.4,24.2,9,17.7,7.4   c-0.8-0.2-1.5-0.3-2.3-0.3c-6.1,0-9.8,6.5-12.6,13c-1.4,3.6-1.2,7,0.3,9.2c1,1.5,2.6,2.3,4.3,2.3c2.3,0,4.6-1.4,6.4-4   c1.6,9.4,1.9,18.2,0.6,24c-0.1,0.6,0.3,1.2,1,1.2h4.8c0.5,0,0.8-0.3,1-0.7c1.9-6.8,6.5-10.8,12.1-10.8c5.5,0,9.4,3.6,11.4,10.8   c0.1,0.4,0.5,0.7,1,0.7H51c0,0,0,0,0,0c0.7,0,1.2-0.8,0.9-1.4c-0.9-3.7-1.1-9.5-0.8-12.7c0-0.5,0.2-1,0.5-1.5   c2.1-3.3,2.3-6.2,0.7-8.7c3.3-3.1,5.8-1.3,11,3.4c0.2,0.2,0.4,0.3,0.7,0.3c0.6,0,1-0.5,1-1v-8.3C65,22.7,65,22.5,64.9,22.4z    M13,20.7c-1.8,0-3.2-1.4-3.2-3.2s1.4-3.2,3.2-3.2s3.2,1.4,3.2,3.2S14.8,20.7,13,20.7z"></path><path d="M60.1,63H49.9c-0.1-2.7-2.3-4.9-5.1-4.9H21.5c-2.7,0-4.9,2.2-5.1,4.9H6.3c-0.6,0-1,0.4-1,1c0,0.6,0.4,1,1,1h11.1   c0,0,0,0,0,0H49c0,0,0,0,0,0h11.1c0.6,0,1-0.4,1-1C61.1,63.4,60.7,63,60.1,63z"></path><path d="M30.1,43.8v12.3c0.1,0,6.3,0,6.2,0V43.8C34.8,43.2,32.2,43,30.1,43.8z"></path></g></svg>